<svg width="18" height="18" viewBox="0 0 18 18" fill="none" xmlns="http://www.w3.org/2000/svg">
<path d="M9.00005 1.79297C5.90981 1.79297 3.40845 4.33477 3.40845 7.46719C3.40845 8.40059 3.8479 9.52207 4.63716 10.8193C5.03091 11.4662 5.50552 12.143 6.04341 12.8426C6.84321 13.8762 7.69927 14.8658 8.6063 15.8063L9.00005 16.207L9.39556 15.8045C9.43774 15.7623 9.51333 15.6832 9.6188 15.5725C10.4432 14.7023 11.2237 13.79 11.9567 12.8426C12.4946 12.1447 12.9692 11.4662 13.3629 10.8193C14.1504 9.52207 14.5917 8.40059 14.5917 7.46719C14.5917 4.33652 12.0903 1.79297 9.00005 1.79297ZM12.4172 10.2428C12.0463 10.8527 11.5946 11.4979 11.0813 12.1641C10.4256 13.0096 9.7313 13.8234 9.00181 14.6057C8.27231 13.8234 7.57622 13.0096 6.92231 12.1641C6.44243 11.5488 5.99595 10.9072 5.58638 10.2428C4.8938 9.10547 4.51938 8.14746 4.51938 7.46719C4.51938 4.94297 6.52856 2.90039 9.00181 2.90039C11.4768 2.90039 13.486 4.94297 13.486 7.46719C13.4842 8.14922 13.1098 9.10547 12.4172 10.2428Z" fill="#1597F6"/>
<path d="M9 4.94141C7.65 4.94141 6.55664 6.03477 6.55664 7.38477C6.55664 8.73477 7.65176 9.82812 9 9.82812C10.35 9.82812 11.4434 8.73477 11.4434 7.38477C11.4434 6.03477 10.35 4.94141 9 4.94141ZM10.3359 7.38477C10.3359 8.12305 9.73828 8.7207 9 8.71894C8.26348 8.71894 7.66582 8.12129 7.66582 7.38477C7.66582 6.64648 8.26348 6.04883 9 6.04883C9.73652 6.04883 10.3342 6.64648 10.3359 7.38477Z" fill="#1597F6"/>
</svg>
