<svg width="100" height="100" viewBox="0 0 100 100" fill="none" xmlns="http://www.w3.org/2000/svg">
<path d="M0 15.625C0 6.99555 6.99555 0 15.625 0H84.375C93.0044 0 100 6.99555 100 15.625V84.375C100 93.0044 93.0044 100 84.375 100H15.625C6.99555 100 0 93.0044 0 84.375V15.625Z" fill="white"/>
<g filter="url(#filter0_i_2130_19716)">
<path fill-rule="evenodd" clip-rule="evenodd" d="M28.0215 20.9496L27.044 17.9414L26.0666 20.9496H22.9035L25.4625 22.8088L24.4851 25.8171L27.044 23.9579L29.603 25.8171L28.6256 22.8088L31.1845 20.9496H28.0215ZM73.4043 20.9496L72.4269 17.9414L71.4494 20.9496H68.2864L70.8454 22.8088L69.8679 25.8171L72.4269 23.9579L74.9858 25.8171L74.0084 22.8088L76.5674 20.9496H73.4043ZM21.59 26.4869C17.9528 32.491 15.8309 39.7174 15.8309 47.4932C15.8309 62.3095 23.5348 75.1312 34.7445 81.3044C26.4462 74.5315 21.718 66.1143 20.5603 56.052C20.5603 54.8652 21.6133 56.4626 23.7192 60.8441C26.7408 67.1308 36.7648 73.1022 42.5693 76.56C42.8331 76.7172 43.0882 76.8691 43.3335 77.0157C47.0955 79.2632 48.9219 81.9934 48.8125 85.2063V91.8063C27.8792 91.247 11.0815 74.1022 11.0815 53.0341C11.0815 42.7637 15.0733 33.4257 21.59 26.4869ZM83.9092 47.4932C83.9092 39.7174 81.7873 32.491 78.15 26.4869C84.6667 33.4257 88.6585 42.7637 88.6585 53.0341C88.6585 74.1022 71.8609 91.247 50.9275 91.8063V85.2063C50.8182 81.9934 52.6446 79.2632 56.4066 77.0157C56.6519 76.8691 56.907 76.7172 57.1708 76.56C62.9752 73.1022 72.9992 67.1308 76.0208 60.8441C78.1267 56.4626 79.1797 54.8652 79.1797 56.052C78.022 66.1143 73.2939 74.5315 64.9956 81.3044C76.2052 75.1312 83.9092 62.3095 83.9092 47.4932Z" fill="#0BB07F"/>
<path d="M67.6533 53.7188C67.6533 63.5558 59.6788 71.5303 49.8418 71.5303C40.0048 71.5303 32.0303 63.5558 32.0303 53.7188C32.0303 53.7188 40.0048 55.9103 49.8418 63.5829C59.6788 55.9103 67.6533 53.7188 67.6533 53.7188Z" fill="#0BB07F"/>
<path d="M51.7603 35.9991C51.7603 34.4184 52.6111 32.9601 53.9873 32.1823L64.3653 26.3164V34.1712C64.3653 35.7519 63.5144 37.2102 62.1383 37.988L51.7603 43.8539V35.9991Z" fill="#0BB07F"/>
<path d="M47.9238 35.9991C47.9238 34.4184 47.0729 32.9601 45.6968 32.1823L35.3188 26.3164V34.1712C35.3188 35.7519 36.1697 37.2102 37.5458 37.988L47.9238 43.8539V35.9991Z" fill="#0BB07F"/>
<path d="M51.7598 50.2712C51.7598 48.6789 52.623 47.2118 54.0149 46.4385L66.557 39.4707V47.3038C66.557 48.8961 65.6938 50.3632 64.3019 51.1364L51.7598 58.1043V50.2712Z" fill="#0BB07F"/>
<path d="M47.9233 50.2712C47.9233 48.6789 47.0601 47.2118 45.6682 46.4385L33.1261 39.4707V47.3038C33.1261 48.8961 33.9893 50.3632 35.3812 51.1364L47.9233 58.1043V50.2712Z" fill="#0BB07F"/>
<path d="M50.1222 17C53.0714 19.9491 55.1913 23.1919 55.4487 27.073C53.6611 28.019 51.4646 29.7912 50.0387 30.7012C48.6129 29.7912 46.4164 28.0259 44.6357 27.073C44.9679 23.0584 47.2666 19.8413 50.1222 17Z" fill="#0BB07F"/>
</g>
<defs>
<filter id="filter0_i_2130_19716" x="11.0815" y="17" width="77.5769" height="75.8066" filterUnits="userSpaceOnUse" color-interpolation-filters="sRGB">
<feFlood flood-opacity="0" result="BackgroundImageFix"/>
<feBlend mode="normal" in="SourceGraphic" in2="BackgroundImageFix" result="shape"/>
<feColorMatrix in="SourceAlpha" type="matrix" values="0 0 0 0 0 0 0 0 0 0 0 0 0 0 0 0 0 0 127 0" result="hardAlpha"/>
<feOffset dy="1"/>
<feGaussianBlur stdDeviation="1"/>
<feComposite in2="hardAlpha" operator="arithmetic" k2="-1" k3="1"/>
<feColorMatrix type="matrix" values="0 0 0 0 0 0 0 0 0 0 0 0 0 0 0 0 0 0 0.25 0"/>
<feBlend mode="normal" in2="shape" result="effect1_innerShadow_2130_19716"/>
</filter>
</defs>
</svg>
