<svg width="16" height="16" viewBox="0 0 16 16" fill="none" xmlns="http://www.w3.org/2000/svg">
<path d="M11.7801 5.52274L8.44393 9.94089C8.3831 10.0214 8.3044 10.0868 8.21404 10.1318C8.12367 10.1768 8.0241 10.2002 7.92315 10.2002C7.8222 10.2002 7.72263 10.1768 7.63227 10.1318C7.5419 10.0868 7.46321 10.0214 7.40237 9.94089L4.06624 5.52339C4.02954 5.47496 4.00709 5.41725 4.00142 5.35675C3.99575 5.29625 4.00709 5.23536 4.03416 5.18096C4.06122 5.12655 4.10295 5.08079 4.15462 5.04882C4.20629 5.01685 4.26587 4.99994 4.32664 5H11.519C11.5797 4.99991 11.6393 5.01676 11.6909 5.04865C11.7426 5.08054 11.7843 5.12621 11.8114 5.18052C11.8386 5.23484 11.85 5.29564 11.8444 5.35609C11.8389 5.41655 11.8166 5.47426 11.7801 5.52274Z" fill="#797979"/>
</svg>
